<svg id="Line" height="512" viewBox="0 0 64 64" width="512" xmlns="http://www.w3.org/2000/svg"><path d="m51.5 35a8 8 0 1 1 -8-8 8.009 8.009 0 0 1 8 8zm8 0a16 16 0 1 1 -16-16 16.019 16.019 0 0 1 16 16zm-6 0a10 10 0 1 0 -10 10 10.011 10.011 0 0 0 10-10zm-24.566 10.533-4.384 13.151a1 1 0 0 0 1.091 1.306l6.571-.939 4.662 3.73a1 1 0 0 0 1.519-.334l4.734-9.466a17.963 17.963 0 0 1 -14.193-7.448zm33.513 13.151-4.383-13.15a17.966 17.966 0 0 1 -14.193 7.447l4.729 9.466a1 1 0 0 0 1.52.334l4.662-3.73 6.571.939a1 1 0 0 0 1.094-1.306z" fill="#c4a2fc"/><path d="m44.5 1h-27a7.008 7.008 0 0 0 -7 7v32h-6a3 3 0 0 0 -3 3v1a7.008 7.008 0 0 0 7 7h24a7.009 7.009 0 0 0 7-7v-32h9a3 3 0 0 0 3-3v-1a7.008 7.008 0 0 0 -7-7zm-36 48a5.006 5.006 0 0 1 -5-5v-1a1 1 0 0 1 1-1h20a1 1 0 0 1 1 1v1a6.98 6.98 0 0 0 2.105 5zm29-5a5 5 0 0 1 -10 0v-1a3 3 0 0 0 -3-3h-12v-32a5.006 5.006 0 0 1 5-5h22.1a6.984 6.984 0 0 0 -2.1 5zm12-35a1 1 0 0 1 -1 1h-9v-2a5 5 0 0 1 10 0zm-16-1a1 1 0 0 1 -1 1h-12a1 1 0 0 1 0-2h12a1 1 0 0 1 1 1zm0 9a1 1 0 0 1 -1 1h-15a1 1 0 0 1 0-2h15a1 1 0 0 1 1 1zm0 6a1 1 0 0 1 -1 1h-15a1 1 0 0 1 0-2h15a1 1 0 0 1 1 1zm0 6a1 1 0 0 1 -1 1h-15a1 1 0 0 1 0-2h15a1 1 0 0 1 1 1zm0 6a1 1 0 0 1 -1 1h-15a1 1 0 0 1 0-2h15a1 1 0 0 1 1 1z" fill="#151a6a"/></svg>