<svg height="512" viewBox="0 0 64 64" width="512" xmlns="http://www.w3.org/2000/svg"><g id="Edit-Edit_Tools-Hand-Setting-Gear" data-name="Edit-Edit Tools-Hand-Setting-Gear"><path d="m32 4a14.015 14.015 0 0 0 -14 14v1h2v-1a12 12 0 0 1 24 0v1h2v-1a14.015 14.015 0 0 0 -14-14z" fill="#ffa733"/><path d="m18 4h28v2h-28z" fill="#ffa733"/><path d="m41.68 37.47a9.8 9.8 0 0 1 -1.09 2.62l2.02 2.69-2.83 2.83-2.69-2.02a9.8 9.8 0 0 1 -2.62 1.09l-.47 3.32h-4l-.47-3.32a9.8 9.8 0 0 1 -2.62-1.09l-2.69 2.02-2.83-2.83 2.02-2.69a9.8 9.8 0 0 1 -1.09-2.62l-3.32-.47v-4l3.32-.47a9.8 9.8 0 0 1 1.09-2.62l-2.02-2.69 2.83-2.83 2.69 2.02a9.8 9.8 0 0 1 2.62-1.09l.05-.36.42-2.96h4l.42 2.96.05.36a9.8 9.8 0 0 1 2.62 1.09l2.69-2.02 2.83 2.83-2.02 2.69a9.8 9.8 0 0 1 1.09 2.62l3.32.47v4z" fill="#ff9811"/><circle cx="32" cy="35" fill="#ffd422" r="5"/><path d="m55 31.4v-9.4a3 3 0 0 1 6 0v24l-4 5v2h-12v-8l7-12.12a2.982 2.982 0 0 1 2.6-1.5c.13 0 .27.01.4.02z" fill="#ffc477"/><path d="m59 53v8h-16v-8h2 12z" fill="#3d9ae2"/><circle cx="47" cy="5" fill="#ff9811" r="2"/><circle cx="45" cy="20" fill="#ff9811" r="2"/><path d="m32 11 4 6-2 4h-4l-2-4z" fill="#e6e7e8"/><path d="m30 25v5.41 5.59h4v-5.59-5.41z" fill="#c6c5ca"/><path d="m36 23a1.955 1.955 0 0 1 -.59 1.41 2.068 2.068 0 0 1 -.99.55 2.848 2.848 0 0 1 -.42.04h-4a2.848 2.848 0 0 1 -.42-.04 2.015 2.015 0 0 1 -1.58-1.96 2.015 2.015 0 0 1 2-2h4a2.006 2.006 0 0 1 2 2z" fill="#898890"/><path d="m21 53v8h-16v-8h2 12z" fill="#3d9ae2"/><circle cx="19" cy="20" fill="#ff9811" r="2"/><path d="m9 31.4c.13-.01.27-.02.4-.02a2.982 2.982 0 0 1 2.6 1.5l7 12.12v8h-12v-2l-4-5v-24a3 3 0 0 1 6 0z" fill="#ffc477"/><circle cx="17" cy="5" fill="#ff9811" r="2"/><circle cx="32" cy="5" fill="#ff9811" r="2"/><path d="m16 56h2v2h-2z" fill="#1e81ce"/><path d="m20 53h-2v-7.732l-6.866-11.892a2 2 0 0 0 -3.464 2l7 12.124-1.732 1-7-12.124a4 4 0 1 1 6.928-4l7 12.124a1 1 0 0 1 .134.5z" fill="#ffb655"/><path d="m46 56h2v2h-2z" fill="#1e81ce"/><path d="m46 53h-2v-8a1 1 0 0 1 .134-.5l7-12.124a4 4 0 1 1 6.928 4l-7 12.124-1.732-1 7-12.124a2 2 0 0 0 -3.464-2l-6.866 11.892z" fill="#ffb655"/><path d="m31 11h2v7h-2z" fill="#acabb1"/></g></svg>