<svg id="Capa_1" enable-background="new 0 0 512 512" height="512" viewBox="0 0 512 512" width="512" xmlns="http://www.w3.org/2000/svg"><g><path d="m73.767 333.908c4.142 0 7.5-3.358 7.5-7.5v-4.142c0-4.142-3.358-7.5-7.5-7.5s-7.5 3.358-7.5 7.5v4.142c0 4.142 3.357 7.5 7.5 7.5z"/><path d="m106.9 333.908c4.142 0 7.5-3.358 7.5-7.5v-4.142c0-4.142-3.358-7.5-7.5-7.5s-7.5 3.358-7.5 7.5v4.142c0 4.142 3.358 7.5 7.5 7.5z"/><path d="m459.999 381.28c.599-.542 1.194-1.092 1.773-1.662 11.023-10.841 17.094-25.325 17.094-40.785v-27.533c4.929-2.673 8.283-7.894 8.283-13.884v-24.85c0-22.406-18.228-40.634-40.633-40.634h-49.7c-22.406 0-40.634 18.228-40.634 40.634v24.85c0 5.99 3.355 11.211 8.284 13.884v26.715c0 17.095 7.454 32.572 19.224 43.237-5.389.454-10.566 1.654-15.429 3.503l-87.846-58.57c-.219-.146-.349-.389-.349-.652v-45.468h42.2c13.27 0 24.067-10.796 24.067-24.067v-49.7c0-29.787-22.89-54.316-52.001-56.953.599-.542 1.194-1.092 1.774-1.662 11.023-10.841 17.094-25.325 17.094-40.785v-27.531c4.929-2.673 8.283-7.894 8.283-13.884v-24.85c0-22.405-18.228-40.633-40.633-40.633h-49.7c-22.405 0-40.633 18.228-40.633 40.633v24.85c0 5.99 3.355 11.211 8.283 13.884v26.715c0 17.096 7.454 32.573 19.225 43.238-29.28 2.468-52.358 27.072-52.358 56.98v49.7c0 13.271 10.796 24.067 24.067 24.067h42.2v45.468c0 .263-.13.506-.349.652l-34.103 22.735c-3.446 2.297-4.378 6.954-2.08 10.4 1.445 2.168 3.823 3.341 6.247 3.341 1.43 0 2.875-.408 4.153-1.261l34.104-22.735c4.4-2.934 7.028-7.843 7.028-13.132v-45.468h18.134v45.468c0 5.289 2.627 10.198 7.028 13.132l81.49 54.332c-4.882 3.781-9.143 8.324-12.589 13.463l-76.24-50.895c-5.319-3.546-12.192-3.546-17.514.002l-76.236 50.893c-3.447-5.141-7.71-9.685-12.594-13.467l21.882-14.588c3.447-2.297 4.378-6.954 2.08-10.4s-6.954-4.377-10.4-2.08l-28.24 18.827c-4.754-1.808-9.808-2.998-15.067-3.474.599-.542 1.193-1.092 1.773-1.662 11.023-10.841 17.094-25.325 17.094-40.785v-27.533c4.929-2.673 8.284-7.894 8.284-13.884v-24.85c0-22.406-18.228-40.634-40.634-40.634h-49.7c-22.405 0-40.633 18.228-40.633 40.634v24.85c0 5.99 3.355 11.211 8.283 13.884v26.715c0 17.095 7.454 32.572 19.224 43.237-29.282 2.47-52.359 27.073-52.359 56.981v49.7c0 13.271 10.796 24.067 24.067 24.067h8.283c4.142 0 7.5-3.358 7.5-7.5s-3.358-7.5-7.5-7.5h-8.283c-5 0-9.067-4.067-9.067-9.067v-49.7c0-15.666 8.587-29.355 21.295-36.635l8.315 23.524c2.004 5.672 6.958 9.658 12.927 10.402.667.083 1.331.124 1.99.124 1.788 0 3.533-.308 5.178-.881l1.351 4.053-7.331 42.766c-.019.112-.036.224-.05.337-.746 5.963 1.894 11.737 6.888 15.077h-3.213c-4.142 0-7.5 3.358-7.5 7.5s3.358 7.5 7.5 7.5h94.25c13.27 0 24.066-10.796 24.066-24.067v-49.7c0-6.36-1.059-12.474-2.984-18.194l77.883-51.992c.264-.176.604-.176.865-.003l77.887 51.995c-1.925 5.72-2.984 11.834-2.984 18.194v49.7c0 13.271 10.796 24.067 24.066 24.067h132.533c13.272 0 24.068-10.796 24.068-24.067v-49.7c0-29.787-22.889-54.316-52.001-56.953zm-192.838-182.48h-22.322l-2.653-7.958 13.814-20.721 13.814 20.721zm-21.404 15h20.486l6.536 38.132c.006.267-.122.517-.349.668l-15.996 10.664c-.264.176-.604.176-.869 0l-15.996-10.664c-.225-.15-.355-.401-.348-.667zm24.257-49.7h19.12c2.304 0 4.563.193 6.768.55l-8.321 23.54c-.052.148-.161.457-.642.517-.481.059-.662-.212-.749-.343zm-44.204 24.264c-.087.131-.265.406-.749.343-.48-.06-.589-.368-.642-.516l-8.321-23.54c2.205-.357 4.464-.55 6.768-.55h19.119zm105.523 17.936v49.7c0 5-4.067 9.067-9.067 9.067h-41.498c4.994-3.339 7.633-9.114 6.888-15.077-.014-.113-.031-.225-.05-.337l-7.33-42.766 1.351-4.053c1.644.573 3.389.881 5.177.881.659 0 1.323-.041 1.989-.124 5.969-.745 10.923-4.73 12.928-10.402l8.315-23.525c12.71 7.281 21.297 20.97 21.297 36.636zm-125.816-165.667c0-14.134 11.499-25.633 25.633-25.633h49.7c14.134 0 25.633 11.499 25.633 25.633v24.85c0 .432-.352.783-.783.783-12.145 0-22.71-8.622-25.121-20.499-1.485-7.321-7.986-12.634-15.458-12.634h-18.243c-7.472 0-13.973 5.313-15.458 12.634-2.411 11.878-12.976 20.5-25.121 20.5-.432 0-.783-.352-.783-.783v-24.851zm8.283 65.449v-25.524c15.962-3.016 29.004-15.465 32.321-31.808.073-.357.391-.617.757-.617h18.243c.366 0 .685.259.757.617 3.317 16.343 16.359 28.791 32.321 31.808v26.342c0 11.405-4.479 22.091-12.612 30.09-8.131 7.997-18.899 12.282-30.313 12.104-22.868-.382-41.474-19.677-41.474-43.012zm-33.134 149.918v-49.7c0-15.666 8.587-29.355 21.295-36.635l8.315 23.525c2.005 5.671 6.959 9.657 12.928 10.401.666.083 1.33.124 1.989.124 1.788 0 3.533-.308 5.177-.881l1.351 4.053-7.33 42.766c-.019.112-.036.224-.05.337-.746 5.963 1.894 11.738 6.888 15.077h-41.498c-4.997 0-9.065-4.067-9.065-9.067zm-79.172 174.733h-22.322l-2.653-7.959 13.814-20.721 13.814 20.721zm-21.404 15h20.486l6.536 38.131c.006.267-.123.517-.349.668l-15.995 10.663c-.264.176-.605.176-.87.001l-15.996-10.664c-.226-.151-.355-.401-.349-.668zm24.257-49.7h19.12c2.304 0 4.563.193 6.768.55l-8.321 23.541c-.052.148-.161.456-.642.516-.479.054-.662-.212-.749-.343zm-64.497-123.466c0-14.135 11.499-25.634 25.633-25.634h49.7c14.135 0 25.634 11.499 25.634 25.634v24.85c0 .432-.352.784-.784.784h-33.133c-14.134 0-25.633-11.499-25.633-25.633 0-4.142-3.358-7.5-7.5-7.5s-7.5 3.358-7.5 7.5c0 14.134-11.499 25.633-25.633 25.633-.432 0-.783-.352-.783-.784v-24.85zm8.283 65.449v-25.521c10.536-1.975 19.646-8.026 25.633-16.451 7.37 10.371 19.47 17.156 33.133 17.156h25.633v25.633c0 11.405-4.479 22.091-12.612 30.09-8.131 7.996-18.912 12.291-30.312 12.104-22.869-.381-41.475-19.676-41.475-43.011zm11.262 82.624c-.48-.06-.589-.368-.642-.517l-8.321-23.54c2.205-.357 4.464-.55 6.768-.55h19.12l-16.176 24.264c-.087.131-.268.401-.749.343zm106.271 67.293c0 5-4.067 9.067-9.066 9.067h-41.498c4.994-3.339 7.633-9.114 6.888-15.077-.014-.113-.03-.225-.05-.337l-7.33-42.766 1.351-4.053c1.644.573 3.389.881 5.178.881.659 0 1.324-.04 1.99-.124 5.969-.745 10.922-4.73 12.927-10.402l8.315-23.525c12.708 7.28 21.295 20.97 21.295 36.635zm245.758-42.2h20.486l6.536 38.131c.006.267-.123.517-.349.668l-15.996 10.664c-.265.176-.606.176-.87 0l-15.996-10.664c-.226-.151-.355-.401-.349-.668zm21.404-15h-22.322l-2.653-7.959 13.814-20.721 13.814 20.721zm-41.351-10.436c-.087.13-.268.4-.749.343-.48-.06-.589-.368-.642-.517l-8.321-23.541c2.205-.357 4.464-.55 6.768-.55h19.12zm44.203-24.264h19.12c2.304 0 4.563.193 6.768.55l-8.321 23.54c-.052.148-.161.457-.642.517-.48.054-.662-.212-.749-.343zm-64.497-123.466c0-14.135 11.499-25.634 25.634-25.634h49.7c14.134 0 25.633 11.499 25.633 25.634v24.85c0 .432-.352.784-.783.784h-33.133c-14.134 0-25.633-11.499-25.633-25.633 0-4.142-3.358-7.5-7.5-7.5s-7.5 3.358-7.5 7.5c0 14.134-11.499 25.633-25.633 25.633-.432 0-.784-.352-.784-.784v-24.85zm8.284 65.449v-25.521c10.536-1.975 19.646-8.026 25.633-16.451 7.37 10.371 19.47 17.156 33.133 17.156h25.633v25.633c0 11.405-4.479 22.091-12.612 30.09-8.131 7.996-18.886 12.291-30.312 12.104-22.869-.381-41.475-19.676-41.475-43.011zm-33.134 149.917v-49.7c0-15.666 8.587-29.355 21.295-36.635l8.315 23.524c2.004 5.672 6.958 9.658 12.927 10.402.667.083 1.331.124 1.99.124 1.788 0 3.533-.308 5.178-.881l1.351 4.053-7.33 42.766c-.02.112-.036.224-.05.337-.746 5.963 1.894 11.737 6.888 15.077h-41.497c-4.999 0-9.067-4.067-9.067-9.067zm150.667 0c0 5-4.067 9.067-9.067 9.067h-41.497c4.994-3.339 7.634-9.114 6.888-15.077-.014-.113-.031-.225-.05-.337l-7.331-42.766 1.351-4.053c1.644.573 3.39.881 5.178.881.658 0 1.323-.04 1.99-.124 5.969-.745 10.922-4.73 12.927-10.402l8.315-23.524c12.708 7.28 21.295 20.969 21.295 36.635v49.7z"/><path d="m405.1 333.908c4.142 0 7.5-3.358 7.5-7.5v-4.142c0-4.142-3.358-7.5-7.5-7.5s-7.5 3.358-7.5 7.5v4.142c0 4.142 3.358 7.5 7.5 7.5z"/><path d="m438.233 333.908c4.142 0 7.5-3.358 7.5-7.5v-4.142c0-4.142-3.358-7.5-7.5-7.5s-7.5 3.358-7.5 7.5v4.142c0 4.142 3.358 7.5 7.5 7.5z"/><path d="m239.433 101.975c4.142 0 7.5-3.358 7.5-7.5v-4.142c0-4.142-3.358-7.5-7.5-7.5s-7.5 3.358-7.5 7.5v4.142c0 4.142 3.358 7.5 7.5 7.5z"/><path d="m272.567 101.975c4.142 0 7.5-3.358 7.5-7.5v-4.142c0-4.142-3.358-7.5-7.5-7.5s-7.5 3.358-7.5 7.5v4.142c0 4.142 3.358 7.5 7.5 7.5z"/></g></svg>